<?xml version="1.0" encoding="UTF-8" standalone="no" ?>
<!DOCTYPE svg PUBLIC "-//W3C//DTD SVG 1.1//EN" "http://www.w3.org/Graphics/SVG/1.1/DTD/svg11.dtd">
<svg xmlns="http://www.w3.org/2000/svg" xmlns:xlink="http://www.w3.org/1999/xlink" version="1.1" width="1000" height="1000" viewBox="0 0 500 500" xml:space="preserve">
<desc>Created with Fabric.js 5.3.0</desc>
<defs>
</defs>
<g transform="matrix(1.7396907216 0 0 1.7396907216 228.5223367698 305.6715313574)" id="TMXRKEfrKeQZazPVzT29T"  >
<path style="stroke: none; stroke-width: 1; stroke-dasharray: none; stroke-linecap: butt; stroke-dashoffset: 0; stroke-linejoin: miter; stroke-miterlimit: 4; fill: rgb(179,181,179); fill-rule: nonzero; opacity: 1;" vector-effect="non-scaling-stroke"  transform=" translate(-40, -39.9995)" d="M 60 4.346 C 71 4.346 80 13.973 80 25.738 C 80 58.45 40 74.762 40 75.65299999999999 L 40 75.65299999999999 C 40 74.763 0 58.54 0 25.738 C 0 13.884 9 4.346 20 4.346 C 31.1 4.346 40 10.835 40 22.689 C 40 10.835 48.9 4.346 60 4.346 z" stroke-linecap="round" />
</g>
<g transform="matrix(11.3611776308 0 0 11.3611776308 227.5223367698 691.3527243098)" id="owjRV-7Nlvcntu2G-BokX"  >
<path style="stroke: none; stroke-width: 1; stroke-dasharray: none; stroke-linecap: butt; stroke-dashoffset: 0; stroke-linejoin: miter; stroke-miterlimit: 4; fill: rgb(179,181,179); fill-rule: nonzero; opacity: 1;" vector-effect="non-scaling-stroke"  transform=" translate(-40, -39.9995)" d="M 60 4.346 C 71 4.346 80 13.973 80 25.738 C 80 58.45 40 74.762 40 75.65299999999999 L 40 75.65299999999999 C 40 74.763 0 58.54 0 25.738 C 0 13.884 9 4.346 20 4.346 C 31.1 4.346 40 10.835 40 22.689 C 40 10.835 48.9 4.346 60 4.346 z" stroke-linecap="round" />
</g>
<g transform="matrix(0.1956022895 0 0 0.1956022895 228.5223367698 251.6193744428)" id="Run-TZkIVDWeDfHasemwm"  >
<path style="stroke: none; stroke-width: 1; stroke-dasharray: none; stroke-linecap: butt; stroke-dashoffset: 0; stroke-linejoin: miter; stroke-miterlimit: 4; fill: rgb(179,181,179); fill-rule: nonzero; opacity: 1;" vector-effect="non-scaling-stroke"  transform=" translate(-40, -39.9995)" d="M 60 4.346 C 71 4.346 80 13.973 80 25.738 C 80 58.45 40 74.762 40 75.65299999999999 L 40 75.65299999999999 C 40 74.763 0 58.54 0 25.738 C 0 13.884 9 4.346 20 4.346 C 31.1 4.346 40 10.835 40 22.689 C 40 10.835 48.9 4.346 60 4.346 z" stroke-linecap="round" />
</g>
<g transform="matrix(0.0274207474 0 0 0.0274207474 228.5223367698 244.6231138311)" id="wJ-xZpFXx6iz6U9IRBGuf"  >
<path style="stroke: none; stroke-width: 1; stroke-dasharray: none; stroke-linecap: butt; stroke-dashoffset: 0; stroke-linejoin: miter; stroke-miterlimit: 4; fill: rgb(179,181,179); fill-rule: nonzero; opacity: 1;" vector-effect="non-scaling-stroke"  transform=" translate(-40, -39.9995)" d="M 60 4.346 C 71 4.346 80 13.973 80 25.738 C 80 58.45 40 74.762 40 75.65299999999999 L 40 75.65299999999999 C 40 74.763 0 58.54 0 25.738 C 0 13.884 9 4.346 20 4.346 C 31.1 4.346 40 10.835 40 22.689 C 40 10.835 48.9 4.346 60 4.346 z" stroke-linecap="round" />
</g>
<g transform="matrix(0.0015632448 0 0 0.0015632448 228.5223367698 243.7012033613)" id="fEyPSyEJ1-t2oYFkgaYWk"  >
<path style="stroke: none; stroke-width: 1; stroke-dasharray: none; stroke-linecap: butt; stroke-dashoffset: 0; stroke-linejoin: miter; stroke-miterlimit: 4; fill: rgb(179,181,179); fill-rule: nonzero; opacity: 1;" vector-effect="non-scaling-stroke"  transform=" translate(-40, -39.9995)" d="M 60 4.346 C 71 4.346 80 13.973 80 25.738 C 80 58.45 40 74.762 40 75.65299999999999 L 40 75.65299999999999 C 40 74.763 0 58.54 0 25.738 C 0 13.884 9 4.346 20 4.346 C 31.1 4.346 40 10.835 40 22.689 C 40 10.835 48.9 4.346 60 4.346 z" stroke-linecap="round" />
</g>
</svg>